<?xml version="1.0" encoding="utf-8"?>
<!-- Generator: Adobe Illustrator 24.1.3, SVG Export Plug-In . SVG Version: 6.00 Build 0)  -->
<svg version="1.1" id="Layer_1" xmlns="http://www.w3.org/2000/svg" xmlns:xlink="http://www.w3.org/1999/xlink" x="0px" y="0px"
	 viewBox="0 0 76.1 98.4" style="enable-background:new 0 0 76.1 98.4;" xml:space="preserve">
<style type="text/css">
	.st0{font-family:'Yellowtail-Regular';}
	.st1{font-size:52px;}
	.st2{font-size:40px;}
</style>
<text transform="matrix(1 0 0 1 4.01 82.76)" class="st0 st1">AB</text>
<text transform="matrix(1 0 0 1 26.33 34.41)" class="st0 st2">_</text>
<path d="M48.4,32.9L48.4,32.9c-0.2-0.2-0.3-0.3-0.4-0.5L44.4,36c-0.3,0.3-0.3,0.7,0,0.9c0.1,0.1,0.3,0.2,0.5,0.2
	c0.2,0,0.3-0.1,0.5-0.2l3.6-3.6C48.7,33.2,48.5,33.1,48.4,32.9z"/>
<path d="M66,15.4L66,15.4c-0.1-0.2-0.4-0.2-0.6-0.2c-1.4,0.2-2.8,0.5-4.1,0.9c-2.9,0.9-5.6,2.3-8,4.1c-1.7,1.4-3.2,3-4.4,4.8
	c-1,1.4-1.6,3-1.7,4.7c-0.1,1,0.2,2,0.7,2.8l11.1-11.1c0.3-0.3,0.7-0.3,0.9,0s0.3,0.7,0,0.9L48.9,33.3c0.7,0.5,1.6,0.8,2.5,0.7h0.3
	c1.7-0.2,3.3-0.8,4.7-1.7c0.9-0.6,1.8-1.3,2.6-2L56,29.9c-0.4-0.1-0.6-0.4-0.5-0.8c0.1-0.3,0.4-0.6,0.7-0.5c0,0,0,0,0,0l3.8,0.6
	c0.3-0.4,0.7-0.7,1-1.1l-2.7-0.4c-0.4-0.1-0.6-0.4-0.5-0.8c0.1-0.3,0.4-0.6,0.7-0.5c0,0,0,0,0,0l3.4,0.6c1.4-2.1,2.6-4.4,3.3-6.9
	c0.4-1.3,0.8-2.7,1-4.1C66.2,15.7,66.2,15.5,66,15.4z"/>
</svg>
